<svg xmlns="http://www.w3.org/2000/svg" viewBox="0 0 129 129" fill="none">
                        <path d="M64.6562 0.745544V128.866" stroke="white" stroke-width="0.552241"></path>
                        <path d="M128.715 64.8061L0.594864 64.8061" stroke="white" stroke-width="0.552241"></path>
                        <rect x="64.6562" y="0.940791" width="90.1849" height="90.1849" transform="rotate(45 64.6562 0.940791)" stroke="white" stroke-opacity="0.3" stroke-width="0.276121"></rect>
                        <rect x="64.6562" y="9.22595" width="78.7073" height="78.7073" transform="rotate(45 64.6562 9.22595)" stroke="white" stroke-opacity="0.3" stroke-width="0.276121"></rect>
                        <rect x="64.6562" y="16.4037" width="68.0602" height="68.0602" transform="rotate(45 64.6562 16.4037)" stroke="white" stroke-opacity="0.3" stroke-width="0.276121"></rect>
                        <rect x="64.6562" y="24.1342" width="57.5169" height="57.5169" transform="rotate(45 64.6562 24.1342)" stroke="white" stroke-opacity="0.3" stroke-width="0.276121"></rect>
                        <rect x="64.6562" y="31.8666" width="46.6807" height="46.6807" transform="rotate(45 64.6562 31.8666)" stroke="white" stroke-opacity="0.3" stroke-width="0.276121"></rect>
                        <rect x="64.6562" y="37.9388" width="37.6017" height="37.6017" transform="rotate(45 64.6562 37.9388)" stroke="white" stroke-opacity="0.3" stroke-width="0.276121"></rect>
                        <rect x="64.6562" y="44.5677" width="28.8156" height="28.8156" transform="rotate(45 64.6562 44.5677)" stroke="white" stroke-opacity="0.3" stroke-width="0.276121"></rect>
                        <rect x="64.6562" y="51.7474" width="17.9436" height="17.9436" transform="rotate(45 64.6562 51.7474)" stroke="white" stroke-opacity="0.3" stroke-width="0.276121"></rect>
                        <path d="M16.6113 64.8063L64.6563 9.30609L120.157 64.8063L64.6563 128.314L16.6113 64.8063Z" fill="white" fill-opacity="0.3" stroke="white" stroke-width="0.276121"></path>
                      </svg>